<?xml version="1.0"?>
<svg width="3370.82" height="2384.24" xmlns="http://www.w3.org/2000/svg" xmlns:svg="http://www.w3.org/2000/svg" clip-rule="evenodd" fill-rule="nonzero" stroke-linejoin="round" version="1.1" xml:space="preserve">

 <g class="layer">
  <title>Layer 1</title>
  <g id="图层-3">
   <path d="m2482.59,1142.49c0,-70.74 41.82,-128.09 93.41,-128.09l674.46,0c51.58,0 93.41,57.35 93.41,128.09l0,18.07c0,70.74 -41.82,128.09 -93.41,128.09l-674.46,0c-51.58,0 -93.41,-57.35 -93.41,-128.09l0,-18.07z" fill="#052537" fill-rule="nonzero" id="svg_1"/>
   <path d="m2456.09,336.11c0,-59.91 35.16,-108.48 78.54,-108.48l757.17,0c43.39,0 78.55,48.56 78.55,108.48l0,0.9c0,59.91 -35.16,108.48 -78.55,108.48l-757.17,0c-43.38,0 -78.54,-48.56 -78.54,-108.48l0,-0.9z" fill="#052537" fill-rule="nonzero" id="svg_2"/>
   <path d="m62.74,348.49c0,-46.99 41.74,-85.08 93.23,-85.08l5.62,0c51.49,0 93.23,38.09 93.23,85.08l0,1741.53c0,46.99 -41.74,85.08 -93.23,85.08l-5.62,0c-51.49,0 -93.23,-38.09 -93.23,-85.08l0,-1741.53z" fill="#052537" fill-rule="nonzero" id="svg_3"/>
   <path d="m62.74,2028.13c0,-68.08 44.22,-123.28 98.77,-123.28l852.4,0c54.56,0 98.78,55.19 98.78,123.28l0,23.68c0,68.08 -44.22,123.28 -98.78,123.28l-852.4,0c-54.55,0 -98.77,-55.19 -98.77,-123.28l0,-23.68z" fill="#052537" fill-rule="nonzero" id="svg_4"/>
   <path d="m480.34,967.51c0,-57.8 46.49,-104.66 103.84,-104.66l7.07,0c57.35,0 103.83,46.86 103.83,104.66l0,679.56c0,57.8 -46.49,104.66 -103.83,104.66l-7.07,0c-57.36,0 -103.84,-46.86 -103.84,-104.66l0,-679.56z" fill="#052537" fill-rule="nonzero" id="svg_5"/>
   <path d="m919.88,862.42c0,-53.72 38.4,-97.27 85.76,-97.27l21.31,0c47.36,0 85.76,43.55 85.76,97.27l0,1217.22c0,53.72 -38.4,97.27 -85.76,97.27l-21.31,0c-47.36,0 -85.76,-43.55 -85.76,-97.27l0,-1217.22z" fill="#052537" fill-rule="nonzero" id="svg_6"/>
   <path d="m919.88,860.66c0,-59.98 40.03,-108.6 89.4,-108.6l389.93,0c49.38,0 89.4,48.61 89.4,108.6l0,4.39c0,59.98 -40.02,108.6 -89.4,108.6l-389.93,0c-49.37,0 -89.4,-48.61 -89.4,-108.6l0,-4.39z" fill="#052537" fill-rule="nonzero" id="svg_7"/>
   <path d="m2099.38,862.19c0,-60.83 43.12,-110.13 96.32,-110.13l7.36,0c53.2,0 96.32,49.3 96.32,110.13l0,1202.78c0,60.81 -43.12,110.13 -96.32,110.13l-7.36,0c-53.2,0 -96.32,-49.31 -96.32,-110.13l0,-1202.78z" fill="#052537" fill-rule="nonzero" id="svg_8"/>
   <path d="m1018.68,1904.86l1542.44,0c51.32,0 92.92,55.32 92.92,123.57l0,20.78c0,68.25 -41.6,123.63 -92.92,123.7l-1542.44,2.18c-51.32,0.07 -92.92,-55.19 -92.92,-123.44l0,-0.13l0,-23.09c0,-68.25 41.6,-123.57 92.92,-123.57z" fill="#052537" fill-rule="nonzero" id="svg_9"/>
   <path d="m1257.14,1141.66l147.45,0c12.32,0 22.31,12.4 22.31,27.72l0,0.05c0,15.31 -9.99,27.72 -22.31,27.72l-147.45,0c-12.32,0 -22.31,-12.4 -22.31,-27.72l0,-0.05c0,-15.31 9.99,-27.72 22.31,-27.72z" fill="#052537" fill-rule="nonzero" id="svg_10"/>
   <path d="m1756.39,1167.3c0,-14.16 9.24,-25.64 20.65,-25.64l150.79,0c11.4,0 20.65,11.48 20.65,25.64l0,4.2c0,14.16 -9.24,25.64 -20.65,25.64l-150.79,0c-11.4,0 -20.65,-11.48 -20.65,-25.64l0,-4.2z" fill="#052537" fill-rule="nonzero" id="svg_11"/>
   <path d="m1903.8,1167.63c0,-14.85 9.69,-26.87 21.65,-26.87l1.38,0c11.95,0 21.64,12.03 21.64,26.87l0,184.76c0,14.85 -9.69,26.87 -21.64,26.87l-1.38,0c-11.96,0 -21.65,-12.03 -21.65,-26.87l0,-184.76z" fill="#052537" fill-rule="nonzero" id="svg_12"/>
   <path d="m1393.4,1168.76c0,-14.97 9.77,-27.1 21.82,-27.1l1.04,0c12.05,0 21.82,12.13 21.82,27.1l0,184.33c0,14.95 -9.77,27.09 -21.82,27.09l-1.04,0c-12.05,0 -21.82,-12.13 -21.82,-27.09l0,-184.33z" fill="#052537" fill-rule="nonzero" id="svg_13"/>
   <path d="m1564.31,1569.37c0,-15.01 9.81,-27.19 21.9,-27.19l148.28,0c12.09,0 21.9,12.18 21.9,27.19l0,1.08c0,15.03 -9.81,27.19 -21.9,27.19l-148.28,0c-12.09,0 -21.9,-12.17 -21.9,-27.19l0,-1.08z" fill="#052537" fill-rule="nonzero" id="svg_14"/>
   <path d="m1711.73,1569c0,-14.81 9.66,-26.83 21.6,-26.83l1.47,0c11.93,0 21.6,12.01 21.6,26.83l0,184.86c0,14.81 -9.67,26.83 -21.6,26.83l-1.47,0c-11.94,0 -21.6,-12.01 -21.6,-26.83l0,-184.86z" fill="#052537" fill-rule="nonzero" id="svg_15"/>
   <path d="m2456.09,370.99c0,-59.42 42.56,-107.58 95.05,-107.58l1.97,0c52.5,0 95.06,48.16 95.06,107.58l0,1698.36c0,59.4 -42.56,107.56 -95.06,107.56l-1.97,0c-52.49,0 -95.05,-48.16 -95.05,-107.56l0,-1698.36z" fill="#052537" fill-rule="nonzero" id="svg_16"/>
   <path d="m1725.21,861.55c0,-60.47 40.77,-109.49 91.04,-109.49l392.09,0c50.27,0 91.04,49.01 91.04,109.49l0,2.61c0,60.47 -40.77,109.49 -91.04,109.49l-392.09,0c-50.27,0 -91.04,-49.01 -91.04,-109.49l0,-2.61z" fill="#052537" fill-rule="nonzero" id="svg_17"/>
   <path d="m2456.09,2033.42c0,-71 44.47,-128.57 99.33,-128.57l715.6,0c54.86,0 99.33,57.57 99.33,128.57l0,13.09c0,71.01 -44.47,128.58 -99.33,128.58l-715.6,0c-54.86,0 -99.33,-57.57 -99.33,-128.58l0,-13.09z" fill="#052537" fill-rule="nonzero" id="svg_18"/>
   <path d="m1064.85,449.42c-30.49,-60.02 -16.38,-133.92 31.5,-165.07l1.02,-0.66c47.88,-31.14 111.41,-7.74 141.9,52.28l233.27,459.22c30.49,60.02 16.38,133.92 -31.5,165.07l-1.02,0.65c-47.88,31.15 -111.42,7.76 -141.91,-52.26l-233.26,-459.22z" fill="#052537" fill-rule="nonzero" id="svg_19"/>
   <path d="m1977.97,328.13c31.02,-60.01 100.33,-79.42 154.82,-43.35l1.94,1.27c54.48,36.08 73.51,113.97 42.49,173.98l-238.72,461.83c-31.03,60.01 -100.34,79.42 -154.83,43.35l-1.94,-1.27c-54.48,-36.08 -73.51,-113.96 -42.49,-173.98l238.73,-461.83z" fill="#052537" fill-rule="nonzero" id="svg_20"/>
   <path d="m2426.39,1202.3c0,-61.51 41.82,-111.39 93.41,-111.39l674.46,0c51.58,0 93.41,49.88 93.41,111.39l0,15.71c0,61.53 -41.82,111.41 -93.41,111.41l-674.46,0c-51.58,0 -93.41,-49.88 -93.41,-111.41l0,-15.71z" fill="#1991e8" fill-rule="nonzero" id="svg_21"/>
   <path d="m2399.9,394.83c0,-50.07 35.16,-90.66 78.55,-90.66l757.17,0c43.38,0 78.54,40.59 78.54,90.66l0,0.75c0,50.07 -35.16,90.66 -78.54,90.66l-757.17,0c-43.39,0 -78.55,-40.59 -78.55,-90.66l0,-0.75z" fill="#1991e8" fill-rule="nonzero" id="svg_22"/>
   <path d="m6.55,389.25c0,-46.99 41.74,-85.08 93.23,-85.08l5.62,0c51.49,0 93.23,38.09 93.23,85.08l0,1741.53c0,46.99 -41.74,85.08 -93.23,85.08l-5.62,0c-51.49,0 -93.23,-38.09 -93.23,-85.08l0,-1741.53z" fill="#1991e8" fill-rule="nonzero" id="svg_23"/>
   <path d="m6.55,2086.15c0,-60.09 44.22,-108.81 98.78,-108.81l852.39,0c54.56,0 98.78,48.72 98.78,108.81l0,20.9c0,60.09 -44.22,108.81 -98.78,108.81l-852.39,0c-54.56,0 -98.78,-48.72 -98.78,-108.81l0,-20.9z" fill="#1991e8" fill-rule="nonzero" id="svg_24"/>
   <path d="m424.16,1008.26c0,-57.79 46.49,-104.65 103.83,-104.65l7.07,0c57.35,0 103.83,46.86 103.83,104.65l0,679.57c0,57.8 -46.49,104.65 -103.83,104.65l-7.07,0c-57.35,0 -103.83,-46.84 -103.83,-104.65l0,-679.57z" fill="#1991e8" fill-rule="nonzero" id="svg_25"/>
   <path d="m863.69,903.18c0,-53.72 38.4,-97.27 85.76,-97.27l21.31,0c47.36,0 85.76,43.55 85.76,97.27l0,1217.2c0,53.73 -38.4,97.28 -85.76,97.28l-21.31,0c-47.36,0 -85.76,-43.55 -85.76,-97.28l0,-1217.2z" fill="#1991e8" fill-rule="nonzero" id="svg_26"/>
   <path d="m863.69,908.09c0,-56.44 40.43,-102.18 90.29,-102.18l393.8,0c49.86,0 90.29,45.74 90.29,102.18l0,4.13c0,56.44 -40.43,102.18 -90.29,102.18l-393.8,0c-49.86,0 -90.29,-45.74 -90.29,-102.18l0,-4.13z" fill="#1991e8" fill-rule="nonzero" id="svg_27"/>
   <path d="m2043.19,869.87c0,-42.55 30.49,-77.06 68.1,-77.06l63.8,0c37.61,0 68.1,34.51 68.1,77.06l0,1268.92c0,42.55 -30.49,77.06 -68.1,77.06l-63.8,0c-37.61,0 -68.1,-34.51 -68.1,-77.06l0,-1268.92z" fill="#1991e8" fill-rule="nonzero" id="svg_28"/>
   <path d="m962.49,1977.34l1542.42,0c51.32,0 92.92,48.84 92.92,109.07l0,18.33c0,60.23 -41.6,109.12 -92.92,109.18l-1542.44,1.93c-51.32,0.06 -92.92,-48.72 -92.92,-108.95l0,-0.12l0,-20.37c0,-60.23 41.6,-109.07 92.93,-109.07z" fill="#1991e8" fill-rule="nonzero" id="svg_29"/>
   <path d="m1226.17,1182.42l147.46,0c12.32,0 22.31,12.4 22.31,27.7l0,0.06c0,15.3 -9.99,27.7 -22.31,27.7l-147.46,0c-12.32,0 -22.31,-12.4 -22.31,-27.7l0,-0.06c0,-15.3 9.99,-27.7 22.31,-27.7z" fill="#1991e8" fill-rule="nonzero" id="svg_30"/>
   <path d="m1722.89,1208.53c0,-14.16 9.24,-25.64 20.65,-25.64l150.79,0c11.4,0 20.65,11.48 20.65,25.64l0,4.19c0,14.16 -9.24,25.64 -20.65,25.64l-150.79,0c-11.4,0 -20.65,-11.48 -20.65,-25.64l0,-4.19z" fill="#1991e8" fill-rule="nonzero" id="svg_31"/>
   <path d="m1870.31,1209.76c0,-14.85 9.68,-26.87 21.64,-26.87l1.38,0c11.95,0 21.64,12.03 21.64,26.87l0,184.76c0,14.85 -9.69,26.87 -21.64,26.87l-1.38,0c-11.96,0 -21.64,-12.03 -21.64,-26.87l0,-184.76z" fill="#1991e8" fill-rule="nonzero" id="svg_32"/>
   <path d="m1362.43,1209.51c0,-14.95 9.77,-27.09 21.82,-27.09l1.04,0c12.05,0 21.82,12.13 21.82,27.09l0,184.34c0,14.95 -9.77,27.09 -21.82,27.09l-1.04,0c-12.05,0 -21.82,-12.13 -21.82,-27.09l0,-184.34z" fill="#1991e8" fill-rule="nonzero" id="svg_33"/>
   <path d="m1530.91,1610.13c0,-15.01 9.81,-27.19 21.9,-27.19l148.28,0c12.09,0 21.9,12.18 21.9,27.19l0,1.08c0,15.01 -9.81,27.19 -21.9,27.19l-148.28,0c-12.09,0 -21.9,-12.18 -21.9,-27.19l0,-1.08z" fill="#1991e8" fill-rule="nonzero" id="svg_34"/>
   <path d="m1678.32,1609.76c0,-14.81 9.67,-26.83 21.6,-26.83l1.48,0c11.93,0 21.6,12.01 21.6,26.83l0,184.86c0,14.81 -9.67,26.83 -21.6,26.83l-1.48,0c-11.93,0 -21.6,-12.01 -21.6,-26.83l0,-184.86z" fill="#1991e8" fill-rule="nonzero" id="svg_35"/>
   <path d="m2399.9,411.75c0,-59.42 42.56,-107.58 95.06,-107.58l1.96,0c52.5,0 95.06,48.16 95.06,107.58l0,1698.36c0,59.4 -42.56,107.56 -95.06,107.56l-1.96,0c-52.5,0 -95.06,-48.16 -95.06,-107.56l0,-1698.36z" fill="#1991e8" fill-rule="nonzero" id="svg_36"/>
   <path d="m1669.02,902.31c0,-60.47 40.77,-109.5 91.04,-109.5l392.09,0c50.27,0 91.04,49.03 91.04,109.5l0,2.61c0,60.47 -40.77,109.49 -91.04,109.49l-392.09,0c-50.27,0 -91.04,-49.01 -91.04,-109.49l0,-2.61z" fill="#1991e8" fill-rule="nonzero" id="svg_37"/>
   <path d="m2399.9,2090.82c0,-62.68 44.47,-113.48 99.33,-113.48l715.6,0c54.86,0 99.33,50.81 99.33,113.48l0,11.55c0,62.68 -44.47,113.48 -99.33,113.48l-715.6,0c-54.86,0 -99.33,-50.81 -99.33,-113.48l0,-11.55z" fill="#1991e8" fill-rule="nonzero" id="svg_38"/>
   <path d="m1008.66,490.18c-30.49,-60.02 -15.03,-134.8 34.53,-167.04l1.05,-0.69c49.57,-32.23 114.46,-9.72 144.95,50.3l233.26,459.22c30.49,60.02 15.03,134.8 -34.53,167.04l-1.05,0.69c-49.57,32.23 -114.46,9.72 -144.95,-50.3l-233.26,-459.22z" fill="#1991e8" fill-rule="nonzero" id="svg_39"/>
   <path d="m1921.78,368.89c31.02,-60.01 96.01,-82.28 145.16,-49.75l1.75,1.15c17.21,11.4 30.19,28 38.47,47.35c15.36,35.9 14.5,81.22 -5.65,120.22l-238.73,461.83c-31.02,60.02 -96.01,82.29 -145.16,49.75l-1.75,-1.15c-49.15,-32.53 -63.84,-107.56 -32.82,-167.57l238.73,-461.83z" fill="#1991e8" fill-rule="nonzero" id="svg_40"/>
  </g>
 </g>
</svg>